<svg width="1088" height="890" viewBox="0 0 1088 890" fill="none" xmlns="http://www.w3.org/2000/svg">
<path fill-rule="evenodd" clip-rule="evenodd" d="M1002 643L1036.31 544.104C1046.49 514.753 1038.77 482.161 1016.5 460.5L1015.53 459.559C993.144 437.784 982.215 406.799 985.987 375.795L998.856 270.024C1005.53 215.2 966.491 165.348 911.667 158.678C908.873 158.338 906.066 158.116 903.253 158.013L862 156.5L777.817 76.1436C749.131 48.761 706.345 42.3275 670.874 60.0628L575.549 107.726C560.113 115.444 542.942 119.035 525.706 118.152L448.331 114.184C407.051 112.067 370.439 140.485 362.25 181L349.28 245.166C348.428 249.384 347.848 253.653 347.546 257.946L335.382 430.484C334.799 438.754 332.663 446.84 329.087 454.319L295.638 524.258C285.231 546.016 283.04 570.803 289.467 594.05L303 643H1002Z" fill="#C4C4DE"/>
<path fill-rule="evenodd" clip-rule="evenodd" d="M303 643L213.288 740.381C186.72 769.221 188.561 814.138 217.401 840.706C229.694 852.031 245.589 858.656 262.287 859.414L927.78 889.63C966.952 891.409 1000.15 861.095 1001.93 821.924C1001.98 820.851 1002 819.777 1002 818.703V643H303Z" fill="#8B8BB5"/>
<mask id="mask0_2:3" style="mask-type:alpha" maskUnits="userSpaceOnUse" x="438" y="0" width="650" height="408">
<path d="M465.5 322V0H438.5V335.5C438.5 342.956 444.544 349 452 349H672.221C687.943 349 703.367 353.285 716.836 361.394L767.238 391.738C784.911 402.378 805.15 408 825.779 408H1087.5V381H825.779C810.057 381 794.633 376.715 781.164 368.606L730.762 338.262C713.089 327.622 692.85 322 672.221 322H465.5Z" fill="white"/>
</mask>
<g mask="url(#mask0_2:3)">
<path d="M465.5 322V0H438.5V335.5C438.5 342.956 444.544 349 452 349H672.221C687.943 349 703.367 353.285 716.836 361.394L767.238 391.738C784.911 402.378 805.15 408 825.779 408H1087.5V381H825.779C810.057 381 794.633 376.715 781.164 368.606L730.762 338.262C713.089 327.622 692.85 322 672.221 322H465.5Z" fill="#FF8484"/>
<path fill-rule="evenodd" clip-rule="evenodd" d="M969 373H1113V422H969V373ZM408 314H552V363H408V314ZM430.5 197.5V75H491L479.5 197.5H430.5ZM717.5 304L833.5 359V408C830.17 420.726 816.504 426.06 792.5 424C768.496 421.94 731.663 412.274 682 395L717.5 304Z" fill="#DE6262"/>
</g>
<path fill-rule="evenodd" clip-rule="evenodd" d="M606 409L274 90.5L245 501L599.5 438L606 409Z" fill="#FFEECD"/>
<mask id="mask1_2:3" style="mask-type:alpha" maskUnits="userSpaceOnUse" x="95" y="63" width="258" height="439">
<path d="M244.138 501.028C314.203 494.513 361.986 391.393 350.864 270.704C339.742 150.014 273.927 57.4568 203.862 63.9718C133.797 70.4868 86.0142 173.607 97.136 294.296C108.258 414.986 174.073 507.543 244.138 501.028Z" fill="white"/>
</mask>
<g mask="url(#mask1_2:3)">
<path d="M243.036 501.127C313.133 494.965 361.435 392.087 350.922 271.343C340.408 150.599 275.061 57.7113 204.964 63.8731C134.867 70.035 86.5646 172.913 97.0782 293.657C107.592 414.401 172.939 507.289 243.036 501.127Z" fill="#F5CB76"/>
<path d="M361 424.5V442.5H253V424.5H202V404.5H307H414V424.5H361ZM359 424.5H307H255V440.5H359V424.5ZM253 422.5H307V406.5H204V422.5H253ZM309 422.5H361H412V406.5H309V422.5ZM229 139.5H176V155.5H279V139.5H229ZM229 137.5H281V157.5H176H68V137.5H122V119.5H229V137.5ZM174 155.5V139.5H122H70V155.5H174ZM227 137.5V121.5H124V137.5H174H227ZM120 184.5H227V204.5H120H15V184.5H120ZM120 202.5V186.5H17V202.5H120ZM122 202.5H225V186.5H122V202.5Z" fill="white"/>
<path d="M413 470.5H308V488.5H413V470.5Z" stroke="white" stroke-width="2"/>
</g>
<path fill-rule="evenodd" clip-rule="evenodd" d="M586.966 450C569.678 478.847 569.678 495.565 586.966 500.155C604.253 504.744 618.931 490.648 631 457.867L586.966 450Z" fill="#353535"/>
<path d="M607.5 803C724.861 803 820 791.359 820 777C820 762.641 724.861 751 607.5 751C490.139 751 395 762.641 395 777C395 791.359 490.139 803 607.5 803Z" fill="#353535"/>
<mask id="mask2_2:3" style="mask-type:alpha" maskUnits="userSpaceOnUse" x="254" y="424" width="684" height="418">
<path d="M864.394 764.785L887.353 781.009C887.513 781.123 887.668 781.243 887.817 781.371C890.457 783.634 890.763 787.61 888.5 790.25C885.787 793.415 881.385 794.547 877.482 793.084C851.503 783.346 836.509 776.318 832.5 772L771 718.5L693 699L688 801C681.661 801.556 676.828 801.889 673.5 802C643.5 803 619.169 803.367 603.222 803.614C587.227 803.862 568.431 803.614 541.186 802.776C538.647 802.698 533.478 802.139 525.677 801.1L536.156 691.741L471.723 757.158C466.59 762.37 460.9 767.003 454.756 770.974L396.243 808.788C389.537 813.122 382.08 816.162 374.257 817.753L255 842C253.253 827.786 259.087 814.953 272.5 803.5C284.205 793.505 323.198 786.729 351 785C353.657 784.835 376.562 765.998 419.713 728.489C421.233 727.167 422.661 725.743 423.987 724.225L497.648 639.888C515.422 619.538 540.809 607.429 567.809 606.423L606 605L614.539 566.46H593.741C578.277 566.46 565.741 553.924 565.741 538.46C565.741 535.383 566.248 532.327 567.242 529.416L587.971 468.681C597.092 441.96 622.199 424 650.434 424H664.419C688.16 424 707.405 443.246 707.405 466.986C707.405 471.958 706.543 476.892 704.856 481.569L658 611.5L784.748 657.891C801.92 664.177 817.04 675.05 828.463 689.329L863 732.5C893 731.167 909.333 732.833 912 737.5C914.214 741.375 922.061 749.963 935.54 763.264C938.216 765.904 938.244 770.214 935.604 772.89C934.687 773.818 933.523 774.464 932.25 774.75C924.511 776.487 916.401 774.598 910.227 769.619L904.5 765C883.971 766.119 870.971 766.119 865.5 765C865.13 764.924 864.761 764.853 864.394 764.785Z" fill="white"/>
</mask>
<g mask="url(#mask2_2:3)">
<path d="M864.394 764.785L887.353 781.009C887.513 781.123 887.668 781.243 887.817 781.371C890.457 783.634 890.763 787.61 888.5 790.25C885.787 793.415 881.385 794.547 877.482 793.084C851.503 783.346 836.509 776.318 832.5 772L771 718.5L693 699L688 801C681.661 801.556 676.828 801.889 673.5 802C643.5 803 619.169 803.367 603.222 803.614C587.227 803.862 568.431 803.614 541.186 802.776C538.647 802.698 533.478 802.139 525.677 801.1L536.156 691.741L471.723 757.158C466.59 762.37 460.9 767.003 454.756 770.974L396.243 808.788C389.537 813.122 382.08 816.162 374.257 817.753L255 842C253.253 827.786 259.087 814.953 272.5 803.5C284.205 793.505 323.198 786.729 351 785C353.657 784.835 376.562 765.998 419.713 728.489C421.233 727.167 422.661 725.743 423.987 724.225L497.648 639.888C515.422 619.538 540.809 607.429 567.809 606.423L606 605L614.539 566.46H593.741C578.277 566.46 565.741 553.924 565.741 538.46C565.741 535.383 566.248 532.327 567.242 529.416L587.971 468.681C597.092 441.96 622.199 424 650.434 424H664.419C688.16 424 707.405 443.246 707.405 466.986C707.405 471.958 706.543 476.892 704.856 481.569L658 611.5L784.748 657.891C801.92 664.177 817.04 675.05 828.463 689.329L863 732.5C893 731.167 909.333 732.833 912 737.5C914.214 741.375 922.061 749.963 935.54 763.264C938.216 765.904 938.244 770.214 935.604 772.89C934.687 773.818 933.523 774.464 932.25 774.75C924.511 776.487 916.401 774.598 910.227 769.619L904.5 765C883.971 766.119 870.971 766.119 865.5 765C865.13 764.924 864.761 764.853 864.394 764.785Z" fill="#FFCDCD"/>
<path fill-rule="evenodd" clip-rule="evenodd" d="M583 603.5C592 618.833 607 627.5 628 629.5C649 631.5 664.333 626.5 674 614.5L780 635.906L735.5 717.5L713 714.5L693.314 802.476L509.054 815L536.693 693.099L509.054 744.865L432 659.284C465.289 626.557 494.743 606.797 520.361 600.003C545.979 593.21 566.859 594.375 583 603.5Z" fill="#FFF9D6"/>
</g>
<path fill-rule="evenodd" clip-rule="evenodd" d="M692.692 475.384L712.997 480.244C713.176 514.746 704.116 529.736 685.818 525.214C676.669 522.953 671.489 517.388 670.277 508.519C662.588 514.794 654.586 516.513 646.269 513.673C629.399 507.915 628.615 491.024 643.916 463L693 474.703C692.897 474.931 692.795 475.158 692.692 475.384V475.384Z" fill="#353535"/>
<mask id="mask3_2:3" style="mask-type:alpha" maskUnits="userSpaceOnUse" x="579" y="414" width="143" height="70">
<path d="M579 447.967L722 484C716.072 478.413 713.238 474.149 713.498 471.207C716.446 437.855 697.945 427.317 659.962 419.071C621.796 410.785 610.15 409.851 593.879 438.145C592.503 440.538 587.544 443.812 579 447.967Z" fill="white"/>
</mask>
<g mask="url(#mask3_2:3)">
<path d="M579 447.967L722 484C716.072 478.413 713.238 474.149 713.498 471.207C716.446 437.855 697.945 427.317 659.962 419.071C621.796 410.785 610.15 409.851 593.879 438.145C592.503 440.538 587.544 443.812 579 447.967Z" fill="#3C3CA0"/>
<path fill-rule="evenodd" clip-rule="evenodd" d="M608 437L716.5 466L719.5 454.5L612 422L608 437Z" fill="#26266F"/>
</g>
<path d="M602.5 443C613.27 443 622 434.27 622 423.5C622 412.73 613.27 404 602.5 404C591.73 404 583 412.73 583 423.5C583 434.27 591.73 443 602.5 443Z" fill="#F5CB76"/>
<path d="M602.5 438C611.06 438 618 431.508 618 423.5C618 415.492 611.06 409 602.5 409C593.94 409 587 415.492 587 423.5C587 431.508 593.94 438 602.5 438Z" fill="#FFEECD"/>
<path d="M596.331 473.876C594.212 468.869 591.144 466.5 587 466.5V463.5C592.173 463.5 596.104 466.342 598.685 471.794C608.72 465.814 617.147 467.996 623.286 478.228C623.712 478.939 623.482 479.86 622.772 480.286C622.061 480.712 621.14 480.482 620.714 479.772C615.217 470.61 608.271 469.081 599.115 475.061L578.372 510.157L590.533 512.528C591.346 512.686 591.877 513.474 591.719 514.287C591.56 515.1 590.772 515.631 589.959 515.472L575.713 512.695C574.696 512.497 574.181 511.352 574.709 510.46L596.331 473.876ZM608 488C605.791 488 604 486.209 604 484C604 481.791 605.791 480 608 480C610.209 480 612 481.791 612 484C612 486.209 610.209 488 608 488ZM587 482C584.791 482 583 480.209 583 478C583 475.791 584.791 474 587 474C589.209 474 591 475.791 591 478C591 480.209 589.209 482 587 482ZM580.641 532.666C576.089 531.424 573.232 527.656 574.258 524.251C575.285 520.846 579.808 519.092 584.359 520.334C588.911 521.576 591.768 525.344 590.742 528.749C589.715 532.154 585.192 533.908 580.641 532.666ZM569.092 545.981C569.379 545.204 570.241 544.806 571.019 545.092C571.796 545.379 572.194 546.241 571.907 547.019L568.407 556.519C568.121 557.296 567.259 557.694 566.481 557.408C565.704 557.121 565.306 556.259 565.592 555.481L569.092 545.981ZM575.092 547.981C575.379 547.204 576.241 546.806 577.019 547.092C577.796 547.379 578.194 548.241 577.907 549.019L574.407 558.519C574.121 559.296 573.259 559.694 572.481 559.408C571.704 559.121 571.306 558.259 571.592 557.481L575.092 547.981ZM581.092 549.981C581.379 549.204 582.241 548.806 583.019 549.092C583.796 549.379 584.194 550.241 583.907 551.019L580.407 560.519C580.121 561.296 579.259 561.694 578.481 561.408C577.704 561.121 577.306 560.259 577.592 559.481L581.092 549.981Z" fill="#353535"/>
<path fill-rule="evenodd" clip-rule="evenodd" d="M747 155.5V175.5H642H534V155.5H554V135.5H659H766V155.5H747ZM659 196.5H766V216.5H659V196.5ZM416 560.5V579.5H308V560.5H255V540.5H360H467V560.5H416ZM988 306.5H1042V326.5H937H829V306.5H776V286.5H881H988V306.5ZM909 533H980V553H873V534H802V514H909V533Z" fill="#8B8BB5"/>
<path d="M121 120.5H16V138.5H121V120.5Z" stroke="white" stroke-width="2"/>
<path fill-rule="evenodd" clip-rule="evenodd" d="M658 337H667V357H658V337ZM884 395H893V415H884V395Z" fill="#8B8BB5"/>
<path fill-rule="evenodd" clip-rule="evenodd" d="M756 785H594V803.5H579V741.5C579 737.358 582.358 734 586.5 734C590.642 734 594 737.358 594 741.5V770H756V741.5C756 737.358 759.358 734 763.5 734C767.642 734 771 737.358 771 741.5V793.5L756 795.5V785Z" fill="#FF8484"/>
<path d="M302.126 818.046C295.522 820.027 291 826.105 291 833C291 833.828 291.672 834.5 292.5 834.5C293.328 834.5 294 833.828 294 833C294 827.43 297.653 822.52 302.988 820.92L317.931 816.437C318.38 816.302 318.74 815.966 318.904 815.527C319.499 813.942 323.655 811.225 331.116 807.868C338.036 804.754 341.911 804.237 346.574 804.833L347.21 804.915C347.459 804.947 347.65 804.97 347.834 804.991C348.658 805.082 349.399 804.489 349.491 803.666C349.582 802.842 348.989 802.101 348.166 802.009C348.002 801.991 347.826 801.969 347.593 801.939C347.521 801.93 347.086 801.874 346.954 801.857C341.757 801.193 337.324 801.784 329.884 805.132C322.349 808.523 317.935 811.272 316.449 813.749L302.126 818.046Z" fill="#353535"/>
<path fill-rule="evenodd" clip-rule="evenodd" d="M663 522.659C683.279 527.925 695.074 523.992 698.385 510.86C700.896 500.9 695.639 492.684 684.107 495.47C681.657 496.061 676.955 500.572 670 509L663 522.659Z" fill="#FFCDCD"/>
<path d="M880.708 749.485L895.953 747.346C903.967 746.221 912.082 748.556 918.272 753.769L936.534 769.147C937.167 769.681 938.114 769.6 938.647 768.966C939.181 768.333 939.1 767.386 938.466 766.853L920.205 751.475C913.363 745.713 904.394 743.132 895.536 744.375L880.291 746.515C879.471 746.63 878.899 747.388 879.015 748.209C879.13 749.029 879.888 749.601 880.708 749.485Z" fill="#353535"/>
<path d="M641 156.5H554V154.5H660V135.5H662V154.5H747V156.5H643V175.5H641V156.5ZM936 307.5H829.5C828.948 307.5 828.5 307.052 828.5 306.5C828.5 305.948 828.948 305.5 829.5 305.5H882V286.5H884V305.5H988C988.552 305.5 989 305.948 989 306.5C989 307.052 988.552 307.5 988 307.5H938V326.5H936V307.5ZM873 534.5C872.448 534.5 872 534.052 872 533.5C872 532.948 872.448 532.5 873 532.5H909C909.552 532.5 910 532.948 910 533.5C910 534.052 909.552 534.5 909 534.5H873ZM360 559.5V540.5H362V559.5H416V561.5H309V559.5H360Z" fill="#353535"/>
<path d="M171.762 317.324C184.332 317.324 194.374 315.499 194.374 304.686C194.374 294.548 186.586 293.872 179.276 293.601V290.898C184.4 290.492 190.822 290.29 190.822 281.368C190.822 271.974 184.332 269.676 170.942 269.676H154V317.324H171.762ZM164.93 279.138H172.308C176.749 279.138 179.891 279.138 179.891 283.463C179.891 287.789 176.749 287.789 172.308 287.789H164.93V279.138ZM164.93 297.251H173.128C179.618 297.251 183.444 297.251 183.444 302.59C183.444 307.862 179.618 307.862 173.128 307.862H164.93V297.251Z" fill="white"/>
<path d="M198.466 299.617C198.466 311.512 205.912 318 220.19 318C234.468 318 241.983 311.512 241.983 299.617V269.676H231.052V294.818C231.052 303.334 230.232 308.538 220.19 308.538C210.148 308.538 209.396 303.334 209.396 294.818V269.676H198.466V299.617Z" fill="white"/>
<path d="M246.783 293.466C246.783 308.065 254.707 318 269.122 318C282.375 318 288.318 308.403 288.386 293.466H291.119L289.07 300.901V317.324H300V296.508C300 292.79 297.951 290.763 294.193 290.763H269.053V298.873H280.189C280.189 305.294 276.09 308.538 269.532 308.538C261.607 308.538 257.713 304.01 257.713 293.466C257.713 282.99 262.632 278.462 271.035 278.462C278.276 278.462 281.897 281.098 282.99 286.708H293.92C292.485 276.299 283.126 269 271.035 269C257.098 269 246.783 278.935 246.783 293.466Z" fill="white"/>
</svg>
